<?xml version="1.0" encoding="UTF-8" standalone="no"?><!DOCTYPE svg PUBLIC "-//W3C//DTD SVG 1.1//EN" "http://www.w3.org/Graphics/SVG/1.1/DTD/svg11.dtd"><svg width="100%" height="100%" viewBox="0 0 48 48" version="1.1" xmlns="http://www.w3.org/2000/svg" xmlns:xlink="http://www.w3.org/1999/xlink" xml:space="preserve" xmlns:serif="http://www.serif.com/" style="fill-rule:evenodd;clip-rule:evenodd;stroke-linejoin:round;stroke-miterlimit:2;"><path d="M22.483,15.906c0.178,0.054 0.278,0.242 0.224,0.419c-0.054,0.178 -0.242,0.278 -0.42,0.224c-0.072,-0.022 -2.117,-0.85 -4.395,-1.007c-1.464,-0.101 -3.031,0.07 -4.197,0.962c-1.916,1.464 -1.61,3.834 0.124,6.232c2.753,3.809 9.084,7.671 16.657,8.472c1.56,0.166 2.833,0.064 3.833,-0.23c0.178,-0.052 0.365,0.05 0.417,0.227c0.052,0.178 -0.049,0.365 -0.227,0.418c-1.069,0.314 -2.428,0.43 -4.093,0.254c-7.795,-0.825 -14.299,-4.827 -17.132,-8.747c-1.991,-2.755 -2.188,-5.478 0.012,-7.16c1.295,-0.99 3.027,-1.211 4.652,-1.099c2.355,0.162 4.47,1.012 4.545,1.035Z" style="fill:#231f20;"/><path d="M36.901,25.201c0.112,0.148 0.083,0.359 -0.065,0.471c-0.148,0.112 -0.359,0.082 -0.471,-0.066c-0.239,-0.316 -0.527,-0.619 -0.863,-0.903c-5.942,-5.011 -6.001,-4.971 -13.139,-8.076c-0.17,-0.074 -0.248,-0.272 -0.174,-0.442c0.074,-0.17 0.272,-0.248 0.442,-0.174c7.228,3.144 7.288,3.104 13.305,8.179c0.376,0.317 0.698,0.657 0.965,1.011Z" style="fill:#231f20;"/><path d="M11.585,19.556c0.064,-0.174 0.258,-0.263 0.432,-0.199c0.174,0.065 0.263,0.258 0.198,0.432c-1.396,3.779 -2.636,6.403 -3.354,8.645c-1.051,3.278 -0.949,5.716 1.481,9.863c4.478,7.642 13.272,5.883 13.638,5.842c7.08,-0.796 9.812,-6.75 11.365,-11.058c0.063,-0.174 0.256,-0.265 0.43,-0.202c0.175,0.063 0.265,0.256 0.202,0.43c-1.622,4.5 -4.527,10.666 -11.922,11.498c-0.384,0.043 -9.594,1.848 -14.293,-6.17c-2.564,-4.375 -2.65,-6.95 -1.541,-10.408c0.721,-2.249 1.963,-4.882 3.364,-8.673Z" style="fill:#231f20;"/><path d="M10.046,24.018c-0.095,-0.159 -0.042,-0.366 0.117,-0.46c0.16,-0.095 0.366,-0.043 0.461,0.117c3.042,5.123 6.144,6.219 9.269,8.446c5.856,4.172 8.554,3.872 14.107,4.065c0.185,0.006 0.331,0.162 0.324,0.347c-0.006,0.185 -0.162,0.331 -0.347,0.324c-5.699,-0.197 -8.464,0.093 -14.474,-4.189c-3.194,-2.275 -6.347,-3.414 -9.457,-8.65Z" style="fill:#231f20;"/><path d="M8.387,28.951c-0.138,-0.124 -0.149,-0.337 -0.026,-0.475c0.124,-0.138 0.337,-0.15 0.475,-0.026c1.275,1.142 8.405,7.529 18.851,11.37c0.174,0.064 0.263,0.257 0.199,0.431c-0.064,0.174 -0.257,0.263 -0.431,0.199c-10.566,-3.885 -17.778,-10.344 -19.068,-11.499Z" style="fill:#231f20;"/><path d="M7.776,31.64c-0.122,-0.141 -0.106,-0.353 0.035,-0.474c0.14,-0.121 0.352,-0.106 0.473,0.035c3.57,4.14 4.872,5.219 8.503,7.819c0.151,0.108 0.186,0.318 0.078,0.469c-0.108,0.151 -0.318,0.185 -0.469,0.078c-3.681,-2.636 -5.002,-3.73 -8.62,-7.927Z" style="fill:#231f20;"/><path d="M10.469,38.251c-0.009,0.185 -0.167,0.328 -0.353,0.319c-0.185,-0.01 -0.328,-0.168 -0.318,-0.353c0.466,-9.301 2.142,-10.4 4.714,-13.733c0.114,-0.146 0.325,-0.174 0.472,-0.06c0.147,0.113 0.174,0.324 0.06,0.471c-2.501,3.241 -4.122,4.312 -4.575,13.356Z" style="fill:#231f20;"/><path d="M13.676,41.657c0.019,0.185 -0.115,0.35 -0.3,0.37c-0.184,0.019 -0.349,-0.115 -0.369,-0.3c-0.798,-7.617 3.964,-12.113 5.11,-13.206c0.135,-0.128 0.347,-0.122 0.475,0.012c0.128,0.134 0.123,0.347 -0.011,0.475c-1.098,1.047 -5.67,5.351 -4.905,12.649Z" style="fill:#231f20;"/><path d="M16.042,39.315c-0.167,-0.079 -0.24,-0.279 -0.161,-0.447c0.079,-0.168 0.279,-0.24 0.447,-0.161c3.324,1.561 3.266,1.599 6.618,2.927c0.173,0.068 0.257,0.264 0.189,0.436c-0.069,0.173 -0.264,0.257 -0.436,0.189c-3.372,-1.336 -3.313,-1.374 -6.657,-2.944Z" style="fill:#231f20;"/><path d="M17.5,43.973c0.018,0.184 -0.118,0.349 -0.302,0.366c-0.185,0.018 -0.349,-0.118 -0.367,-0.302c-0.749,-7.855 4.208,-11.999 4.395,-12.207c0.124,-0.138 0.337,-0.148 0.475,-0.024c0.137,0.124 0.148,0.337 0.024,0.474c-0.179,0.199 -4.943,4.166 -4.225,11.693Z" style="fill:#231f20;"/><path d="M18.481,16.96c0.178,0.05 0.282,0.236 0.232,0.414c-0.051,0.179 -0.236,0.283 -0.415,0.232l-0.007,-0.002c-0.179,-0.05 -0.283,-0.236 -0.233,-0.414c0.051,-0.179 0.236,-0.283 0.415,-0.233l0.008,0.003Z" style="fill:#231f20;"/><path d="M19.041,17.123c0.178,0.053 0.279,0.24 0.226,0.418c-0.054,0.177 -0.241,0.278 -0.419,0.225c-0.185,-0.055 -0.368,-0.109 -0.55,-0.16c-0.178,-0.05 -0.282,-0.236 -0.232,-0.414c0.05,-0.179 0.236,-0.283 0.415,-0.232c0.184,0.052 0.371,0.106 0.56,0.163Z" style="fill:#231f20;"/><path d="M18.805,17.139c0.071,-0.033 0.155,-0.041 0.236,-0.016c4.758,1.423 10.756,4.22 13.737,6.876c0.8,0.713 1.387,1.421 1.695,2.088c0.226,0.491 0.306,0.966 0.229,1.412c-0.354,2.051 -1.909,2.765 -3.966,2.711c-2.843,-0.074 -6.682,-1.659 -9.192,-2.786c-3.551,-1.594 -6.157,-4.235 -6.992,-6.43c-0.456,-1.2 -0.392,-2.28 0.245,-3.044c0.612,-0.735 1.796,-1.201 3.685,-1.13c0.175,0.007 0.314,0.147 0.323,0.319Zm-0.196,0.323c-0.046,0.021 -0.098,0.032 -0.152,0.03c-1.601,-0.061 -2.625,0.265 -3.144,0.888c-0.496,0.595 -0.488,1.44 -0.132,2.375c0.789,2.077 3.279,4.548 6.638,6.056c2.441,1.096 6.169,2.655 8.935,2.727c1.682,0.044 2.996,-0.476 3.285,-2.153c0.071,-0.41 -0.059,-0.848 -0.329,-1.306c-0.302,-0.512 -0.776,-1.041 -1.379,-1.578c-2.924,-2.606 -8.815,-5.338 -13.483,-6.735c-0.139,-0.042 -0.232,-0.167 -0.239,-0.304Z" style="fill:#231f20;"/><path d="M18.499,16.821c0.185,0.007 0.33,0.163 0.323,0.349c-0.008,0.185 -0.164,0.33 -0.349,0.322l-0.016,-0c-0.186,-0.007 -0.33,-0.163 -0.323,-0.349c0.007,-0.185 0.163,-0.33 0.348,-0.323l0.017,0.001Z" style="fill:#231f20;"/><path d="M12.608,18.189c-0.085,0.164 -0.288,0.229 -0.453,0.144c-0.164,-0.086 -0.229,-0.289 -0.143,-0.453c3.906,-7.546 5.761,-9.827 12.272,-14.743c4.363,-3.295 10.013,-1.151 13.496,7.065c1.344,3.17 1.173,7.078 0.437,10.7c-1.089,5.365 -3.402,10.095 -3.693,10.777c-0.072,0.171 -0.27,0.251 -0.44,0.178c-0.171,-0.073 -0.251,-0.27 -0.178,-0.441c0.287,-0.674 2.576,-5.347 3.653,-10.647c0.708,-3.488 0.897,-7.252 -0.398,-10.305c-3.247,-7.659 -8.405,-9.862 -12.472,-6.791c-6.41,4.84 -8.235,7.087 -12.081,14.516Z" style="fill:#231f20;"/><path d="M16.463,15.387c-0.107,0.151 -0.317,0.187 -0.468,0.079c-0.151,-0.107 -0.187,-0.317 -0.079,-0.468c5.737,-8.073 9.627,-11.584 16.16,-12.06c0.185,-0.014 0.346,0.126 0.359,0.311c0.014,0.185 -0.125,0.346 -0.31,0.359c-6.349,0.463 -10.086,3.934 -15.662,11.779Z" style="fill:#231f20;"/><path d="M27.81,2.453c-0.185,-0.006 -0.331,-0.162 -0.324,-0.347c0.006,-0.185 0.161,-0.331 0.347,-0.324c3.584,0.12 5.919,0.477 7.641,1.559c1.735,1.09 2.867,2.915 3.993,6.023c2.956,8.158 0.238,15.372 -0.868,19.15c-0.052,0.177 -0.239,0.28 -0.417,0.228c-0.178,-0.053 -0.28,-0.239 -0.228,-0.417c1.082,-3.696 3.773,-10.751 0.881,-18.732c-1.058,-2.921 -2.088,-4.658 -3.719,-5.683c-1.645,-1.033 -3.882,-1.342 -7.306,-1.457Z" style="fill:#231f20;"/><path d="M33.785,31.357c0.011,-0.185 0.17,-0.326 0.355,-0.315c0.186,0.011 0.327,0.17 0.316,0.355c-0.003,0.043 -0.069,0.343 -0.025,0.687c0.035,0.279 0.146,0.6 0.486,0.775c0.378,0.194 0.739,0.059 1.03,-0.142c0.339,-0.235 0.594,-0.567 0.693,-0.73c0.222,-0.361 0.593,-0.982 1.617,-5.031c0.046,-0.18 0.228,-0.289 0.408,-0.244c0.18,0.046 0.289,0.229 0.244,0.409c-1.063,4.203 -1.466,4.843 -1.696,5.218c-0.154,0.251 -0.596,0.814 -1.169,1.1c-0.428,0.213 -0.923,0.28 -1.434,0.017c-0.573,-0.294 -0.786,-0.817 -0.846,-1.288c-0.051,-0.406 0.018,-0.761 0.021,-0.811Z" style="fill:#231f20;"/></svg>